<svg xmlns="http://www.w3.org/2000/svg" width="24" height="24" fill="none" viewBox="0 0 24 24" id="medium"><path fill="#3747D6" d="M2 1C1.44772 1 1 1.44772 1 2V22C1 22.5523 1.44772 23 2 23H22C22.5523 23 23 22.5523 23 22V2C23 1.44772 22.5523 1 22 1H2Z"></path><path fill="#90CAEA" fill-rule="evenodd" d="M6 6H8.5C8.92494 6 9.30348 6.26856 9.44386 6.66965L12 13.9729L14.5561 6.66965C14.6965 6.26856 15.0751 6 15.5 6H18V8H16.2095L12.9439 17.3304C12.8035 17.7314 12.4249 18 12 18C11.5751 18 11.1965 17.7314 11.0561 17.3304L7.79052 8H6V6Z" clip-rule="evenodd"></path><path fill="#90CAEA" fill-rule="evenodd" d="M6.5 17V7H8.5V17H6.5zM15.5 17V7H17.5V17H15.5z" clip-rule="evenodd"></path><path fill="#90CAEA" fill-rule="evenodd" d="M9 18H6V16H9V18zM18 18H15V16H18V18z" clip-rule="evenodd"></path></svg>